<svg width="20" height="20" viewBox="0 0 20 20" fill="none" xmlns="http://www.w3.org/2000/svg">
<g clip-path="url(#clip0_127_13)">
<path d="M6.92068 9.73594H4.16482C3.56966 9.73552 2.99899 9.49891 2.57815 9.07807C2.15731 8.65723 1.9207 8.08657 1.92029 7.49141V4.73555C1.92075 4.14042 2.15739 3.56981 2.57822 3.14901C2.99906 2.72821 3.56969 2.49162 4.16482 2.49121H6.92068C7.51577 2.49168 8.08636 2.72828 8.50715 3.14908C8.92794 3.56987 9.16455 4.14045 9.16501 4.73555V7.49141C9.1646 8.08653 8.92802 8.65717 8.50722 9.078C8.08642 9.49884 7.5158 9.73547 6.92068 9.73594ZM4.16482 3.52207C3.8431 3.52243 3.53465 3.6504 3.30716 3.87789C3.07967 4.10538 2.9517 4.41382 2.95134 4.73555V7.49141C2.9517 7.81313 3.07967 8.12157 3.30716 8.34906C3.53465 8.57656 3.8431 8.70452 4.16482 8.70488H6.92068C7.2424 8.70452 7.55084 8.57656 7.77834 8.34906C8.00583 8.12157 8.13379 7.81313 8.13416 7.49141V4.73555C8.13379 4.41382 8.00583 4.10538 7.77834 3.87789C7.55084 3.6504 7.2424 3.52243 6.92068 3.52207H4.16482Z" fill="var(--ttime-icon-color)"/>
<path d="M13.8868 10.3057C13.592 10.3062 13.3001 10.2485 13.0277 10.1359C12.7554 10.0233 12.5079 9.85797 12.2996 9.64945L10.3516 7.70062C9.93112 7.27949 9.69495 6.70871 9.69495 6.11361C9.69495 5.5185 9.93112 4.94772 10.3516 4.5266L12.2994 2.57816C12.7206 2.15768 13.2914 1.92151 13.8865 1.92151C14.4816 1.92151 15.0523 2.15768 15.4735 2.57816L17.4219 4.5266C17.8424 4.94772 18.0786 5.5185 18.0786 6.11361C18.0786 6.70871 17.8424 7.27949 17.4219 7.70062L15.4731 9.64945C15.2649 9.8579 15.0176 10.0232 14.7454 10.1358C14.4731 10.2484 14.1814 10.3062 13.8868 10.3057ZM13.0287 8.92035C13.2565 9.14755 13.5651 9.27515 13.8868 9.27515C14.2085 9.27515 14.517 9.14755 14.7448 8.92035L16.6934 6.97152C16.9207 6.74382 17.0484 6.43524 17.0484 6.11351C17.0484 5.79178 16.9207 5.4832 16.6934 5.2555L14.7448 3.30687C14.5171 3.07957 14.2085 2.9519 13.8868 2.9519C13.565 2.9519 13.2564 3.07957 13.0287 3.30687L11.0799 5.2555C10.8527 5.48325 10.7251 5.79181 10.7251 6.11351C10.7251 6.43521 10.8527 6.74377 11.0799 6.97152L13.0287 8.92035Z" fill="var(--ttime-icon-color)"/>
<path d="M15.2644 18.0796H12.5086C11.9134 18.0792 11.3427 17.8426 10.9219 17.4218C10.5011 17.0009 10.2645 16.4303 10.264 15.8351V13.0792C10.2645 12.4841 10.5011 11.9134 10.9219 11.4926C11.3427 11.0717 11.9134 10.8351 12.5086 10.8347H15.2644C15.8596 10.8352 16.4302 11.0718 16.851 11.4927C17.2718 11.9135 17.5084 12.4841 17.5088 13.0792V15.8351C17.5084 16.4302 17.2718 17.0009 16.851 17.4217C16.4302 17.8425 15.8596 18.0792 15.2644 18.0796ZM12.5086 11.8658C12.1868 11.8661 11.8784 11.9941 11.6509 12.2216C11.4234 12.4491 11.2955 12.7575 11.2951 13.0792V15.8351C11.2955 16.1568 11.4234 16.4653 11.6509 16.6928C11.8784 16.9203 12.1868 17.0482 12.5086 17.0486H15.2644C15.5862 17.0482 15.8946 16.9203 16.1221 16.6928C16.3496 16.4653 16.4775 16.1568 16.4779 15.8351V13.0792C16.4775 12.7575 16.3496 12.4491 16.1221 12.2216C15.8946 11.9941 15.5862 11.8661 15.2644 11.8658H12.5086ZM6.92068 18.0796H4.16482C3.56966 18.0792 2.99899 17.8426 2.57815 17.4218C2.15731 17.0009 1.9207 16.4303 1.92029 15.8351V13.0792C1.9207 12.4841 2.15731 11.9134 2.57815 11.4926C2.99899 11.0717 3.56966 10.8351 4.16482 10.8347H6.92068C7.5158 10.8352 8.08642 11.0718 8.50722 11.4927C8.92802 11.9135 9.1646 12.4841 9.16501 13.0792V15.8351C9.1646 16.4302 8.92802 17.0009 8.50722 17.4217C8.08642 17.8425 7.5158 18.0792 6.92068 18.0796ZM4.16482 11.8658C3.8431 11.8661 3.53465 11.9941 3.30716 12.2216C3.07967 12.4491 2.9517 12.7575 2.95134 13.0792V15.8351C2.9517 16.1568 3.07967 16.4653 3.30716 16.6928C3.53465 16.9203 3.8431 17.0482 4.16482 17.0486H6.92068C7.2424 17.0482 7.55084 16.9203 7.77834 16.6928C8.00583 16.4653 8.13379 16.1568 8.13416 15.8351V13.0792C8.13379 12.7575 8.00583 12.4491 7.77834 12.2216C7.55084 11.9941 7.2424 11.8661 6.92068 11.8658H4.16482Z" fill="var(--ttime-icon-color)"/>
</g>
<defs>
<clipPath id="clip0_127_13">
<rect width="20" height="20" fill="white"/>
</clipPath>
</defs>
</svg>
