<svg width="20" height="20" viewBox="0 0 20 20" fill="none" xmlns="http://www.w3.org/2000/svg">
<path d="M9.8333 0.255615C15.1905 0.255615 19.5333 4.59839 19.5333 9.95562C19.5333 15.3128 15.1905 19.6556 9.8333 19.6556C4.47608 19.6556 0.133301 15.3134 0.133301 9.95562C0.133301 4.59784 4.47608 0.255615 9.8333 0.255615ZM9.8333 1.87228C5.36886 1.87228 1.74997 5.49117 1.74997 9.95562C1.74997 14.4201 5.36886 18.0389 9.8333 18.0389C14.2977 18.0389 17.9166 14.4201 17.9166 9.95562C17.9166 5.49117 14.2977 1.87228 9.8333 1.87228ZM8.69108 5.6445C8.83897 5.64373 8.98346 5.68884 9.10465 5.77361C9.22584 5.85838 9.31776 5.97865 9.36774 6.11784L11.7083 12.8101C11.8289 13.1701 11.6261 13.5667 11.2583 13.6889C11.1822 13.7156 11.1061 13.7278 11.0255 13.7278C10.8793 13.7287 10.7363 13.6848 10.6158 13.6021C10.4952 13.5194 10.4029 13.4018 10.3511 13.2651L9.90052 11.9773C9.89478 11.9616 9.88444 11.9481 9.87085 11.9385C9.85725 11.9289 9.84106 11.9236 9.82441 11.9234H7.45774C7.44128 11.9231 7.42514 11.9279 7.41152 11.9372C7.3979 11.9464 7.38746 11.9597 7.38163 11.9751L6.90386 13.2751C6.84923 13.4057 6.75687 13.517 6.63859 13.5948C6.52032 13.6726 6.38152 13.7133 6.23997 13.7117C6.15775 13.7117 6.07497 13.6973 5.99663 13.6701C5.82331 13.6118 5.67995 13.4876 5.59767 13.3243C5.5154 13.161 5.50085 12.9718 5.55719 12.7978L8.01608 6.10784C8.06781 5.97092 8.16023 5.85313 8.2809 5.77029C8.40158 5.68746 8.54472 5.64357 8.69108 5.6445ZM13.4277 5.65062C13.8233 5.65062 14.1444 5.9545 14.1444 6.32673V13.0023C14.1427 13.3745 13.8211 13.6762 13.4277 13.6762C13.0322 13.6762 12.7111 13.3723 12.7111 13.0006V6.32673C12.7111 5.9545 13.0322 5.65062 13.4277 5.65062ZM8.66997 8.62173C8.65351 8.62146 8.63736 8.62628 8.62374 8.63553C8.61012 8.64477 8.59968 8.658 8.59386 8.67339L7.95497 10.4139C7.95095 10.426 7.94986 10.4388 7.95179 10.4514C7.95373 10.464 7.95862 10.4759 7.96608 10.4862C7.98052 10.5073 8.00552 10.5195 8.03108 10.5195H9.27886C9.29163 10.5195 9.30421 10.5164 9.3156 10.5106C9.32698 10.5048 9.33685 10.4965 9.34441 10.4862C9.35177 10.4758 9.35657 10.4639 9.35841 10.4513C9.36024 10.4388 9.35906 10.426 9.35497 10.4139L8.74608 8.67339C8.74054 8.65781 8.73017 8.64439 8.71648 8.6351C8.70279 8.62581 8.6865 8.62112 8.66997 8.62173Z" fill="var(--ttime-icon-color)"/>
</svg>
