<svg width="20" height="20" viewBox="0 0 20 20" fill="none" xmlns="http://www.w3.org/2000/svg">
<path d="M10.1649 19.163C5.10336 19.163 0.999985 15.0596 0.999985 9.99809C0.999985 4.93656 5.10336 0.833176 10.1649 0.833176C15.2264 0.833176 19.3298 4.93656 19.3298 9.99809C19.3298 15.0596 15.2264 19.163 10.1649 19.163ZM10.1649 17.4967C14.3062 17.4967 17.6635 14.1394 17.6635 9.99809C17.6635 5.8568 14.3062 2.49952 10.1649 2.49952C6.02361 2.49952 2.66633 5.8568 2.66633 9.99809C2.66633 14.1394 6.02361 17.4967 10.1649 17.4967Z" fill="var(--ttime-icon-color)"/>
<path d="M10.5698 14.4388H9.92919C8.3489 14.4388 7.06148 13.1514 7.06148 11.5711V8.44412C7.06148 6.86383 8.3489 5.57641 9.92919 5.57641H10.5698C12.1501 5.57641 13.4376 6.86383 13.4376 8.44412V11.5711C13.4376 13.1545 12.1501 14.4388 10.5698 14.4388ZM9.92919 6.3391C8.7699 6.3391 7.82417 7.28483 7.82417 8.44412V11.5711C7.82417 12.7304 8.7699 13.6762 9.92919 13.6762H10.5698C11.7291 13.6762 12.6749 12.7304 12.6749 11.5711V8.44412C12.6749 7.28483 11.7291 6.3391 10.5698 6.3391H9.92919Z" fill="var(--ttime-icon-color)"/>
<path d="M9.85292 7.11703H10.6156V9.13053H9.85292V7.11703Z" fill="var(--ttime-icon-color)"/>
</svg>
