<svg width="20" height="20" viewBox="0 0 20 20" fill="none" xmlns="http://www.w3.org/2000/svg">
<path d="M19.98 14.3038V17.8638C19.98 19.0413 19.0213 20 17.8425 20H13.565C13.376 20 13.1948 19.9249 13.0612 19.7913C12.9276 19.6577 12.8525 19.4765 12.8525 19.2875C12.8525 19.0985 12.9276 18.9173 13.0612 18.7837C13.1948 18.6501 13.376 18.575 13.565 18.575H17.8425C18.0313 18.575 18.2123 18.5001 18.3459 18.3668C18.4795 18.2334 18.5547 18.0525 18.555 17.8638V14.3038C18.555 14.1148 18.6301 13.9336 18.7637 13.7999C18.8973 13.6663 19.0785 13.5913 19.2675 13.5913C19.4565 13.5913 19.6377 13.6663 19.7713 13.7999C19.9049 13.9336 19.98 14.1148 19.98 14.3038ZM5.72125 18.575H2.15875C1.96978 18.575 1.78856 18.4999 1.65494 18.3663C1.52132 18.2327 1.44625 18.0515 1.44625 17.8625V14.3025C1.44625 14.1134 1.37112 13.932 1.23738 13.7982C1.10364 13.6645 0.922258 13.5894 0.733125 13.5894C0.543993 13.5894 0.362606 13.6645 0.228869 13.7982C0.0951325 13.932 0.02 14.1134 0.02 14.3025V17.8625C0.02 19.04 0.97875 19.9988 2.1575 19.9988H5.72125C5.91022 19.9988 6.09144 19.9237 6.22506 19.7901C6.35868 19.6564 6.43375 19.4752 6.43375 19.2863C6.43375 19.0973 6.35868 18.9161 6.22506 18.7824C6.09144 18.6488 5.91022 18.5737 5.72125 18.5737V18.575ZM0.7125 6.40875C0.806067 6.40875 0.898717 6.39032 0.985162 6.35452C1.07161 6.31871 1.15015 6.26623 1.21631 6.20006C1.28248 6.1339 1.33496 6.05536 1.37076 5.96891C1.40657 5.88247 1.425 5.78982 1.425 5.69625V2.1375C1.425 1.94853 1.50007 1.76731 1.63369 1.63369C1.76731 1.50007 1.94853 1.425 2.1375 1.425H5.7025C5.79849 1.42902 5.89431 1.41359 5.98419 1.37963C6.07406 1.34567 6.15614 1.29388 6.22549 1.22738C6.29484 1.16088 6.35002 1.08104 6.38771 0.992665C6.42541 0.90429 6.44484 0.809204 6.44484 0.713125C6.44484 0.617046 6.42541 0.52196 6.38771 0.433585C6.35002 0.345209 6.29484 0.265371 6.22549 0.198871C6.15614 0.13237 6.07406 0.0805825 5.98419 0.0466211C5.89431 0.0126597 5.79849 -0.00277339 5.7025 0.00125002H2.1375C0.95875 2.11912e-08 0 0.95875 0 2.13625V5.69625C0 6.09 0.31875 6.40875 0.7125 6.40875ZM17.8625 0H13.585C13.4914 -1.97177e-09 13.3988 0.0184293 13.3123 0.0542358C13.2259 0.0900422 13.1473 0.142525 13.0812 0.208686C13.015 0.274848 12.9625 0.353393 12.9267 0.439838C12.8909 0.526282 12.8725 0.618933 12.8725 0.7125C12.8725 0.806067 12.8909 0.898717 12.9267 0.985162C12.9625 1.07161 13.015 1.15015 13.0812 1.21631C13.1473 1.28248 13.2259 1.33496 13.3123 1.37076C13.3988 1.40657 13.4914 1.425 13.585 1.425H17.8613C18.05 1.425 18.231 1.49989 18.3646 1.63324C18.4982 1.76659 18.5734 1.9475 18.5737 2.13625V5.69625C18.5737 5.88538 18.6489 6.06677 18.7826 6.20051C18.9164 6.33424 19.0977 6.40938 19.2869 6.40938C19.476 6.40938 19.6574 6.33424 19.7911 6.20051C19.9249 6.06677 20 5.88538 20 5.69625V2.1375C20 0.95875 19.04 0 17.8625 0ZM7.46875 9.96125C7.46875 11.87 6.38875 13.0113 4.79875 13.0113C3.21 13.0113 2.12875 11.87 2.12875 9.96125C2.12875 8.0525 3.21 6.97375 4.79875 6.97375C6.38875 6.97375 7.46875 8.06125 7.46875 9.96125ZM6.04375 9.96125C6.04375 8.835 5.56625 8.17 4.79875 8.17C4.03125 8.17 3.56125 8.835 3.56125 9.96125C3.56125 11.095 4.03125 11.8075 4.79875 11.8075C5.56625 11.8075 6.04375 11.095 6.04375 9.96125ZM10.875 11.8075C10.0525 11.8075 9.52 11.135 9.52 9.97625C9.52 8.8425 10.1388 8.17 10.89 8.17C11.305 8.17 11.61 8.3575 11.9 8.62375L12.6362 7.7325C12.4066 7.49451 12.1318 7.3048 11.8278 7.1745C11.5239 7.04421 11.1969 6.97595 10.8663 6.97375C9.3875 6.97375 8.0875 8.08375 8.0875 10.0238C8.0875 11.995 9.34 13.0113 10.82 13.0113C11.1811 13.0186 11.5394 12.9453 11.8685 12.7965C12.1977 12.6477 12.4895 12.4272 12.7225 12.1513L11.9863 11.2763C11.7113 11.5725 11.3363 11.8075 10.8738 11.8075H10.875ZM16.7938 10.595L18.0938 12.9025H16.5275L15.455 10.8525H14.7813V12.9025H13.38V7.0825H15.5175C16.7625 7.0825 17.7963 7.505 17.7963 8.9125C17.7963 9.76625 17.3962 10.3125 16.7938 10.595ZM16.4263 8.9125C16.4263 8.365 16.0738 8.18625 15.4075 8.18625H14.7825V9.75H15.4075C16.0738 9.75 16.4263 9.46 16.4263 8.9125Z" fill="var(--ttime-icon-color)"/>
</svg>
