<svg width="20" height="20" viewBox="0 0 20 20" fill="none" xmlns="http://www.w3.org/2000/svg">
<g clip-path="url(#clip0_121_124)">
<path d="M10 20C4.5 20 0 15.5 0 10C0 4.5 4.5 0 10 0C15.5 0 20 4.5 20 10C20 15.5 15.5 20 10 20ZM10 1.66667C5.41667 1.66667 1.66667 5.41667 1.66667 10C1.66667 14.5833 5.41667 18.3333 10 18.3333C14.5833 18.3333 18.3333 14.5833 18.3333 10C18.3333 5.41667 14.5833 1.66667 10 1.66667Z" fill="var(--ttime-icon-color)"/>
<path d="M12.0896 12.2519H14.4776V13.626H12.0896V15H10.5224V13.626H8.35821V12.7863C6.71642 14.3893 6.41791 14.6947 6.26866 15V14.9237C6.1194 14.6183 5.74627 14.084 5.52239 13.9313C5.74627 13.7023 6.04478 13.2443 6.04478 12.6336V9.65649H5V8.20611H7.53731V11.7939L7.91045 11.4122C8.0597 11.7176 8.20896 12.1756 8.35821 12.4809V12.2519H10.5224V11.7939H8.73134V10.4198H10.5224V9.65649H12.0896V10.4198H13.8806V11.7939H12.0896V12.2519ZM6.41791 7.82443C6.19403 7.29008 5.67164 6.45038 5.29851 5.76336L6.49254 5C6.86567 5.61069 7.46269 6.45038 7.68657 6.98473L6.41791 7.82443ZM14.7015 5.76336C14.2537 6.67939 13.5821 7.44275 12.8358 8.12977C13.5075 8.35878 14.1791 8.58779 15 8.74046C14.7015 9.0458 14.2537 9.65649 14.0299 10.1145C13.0597 9.8855 12.2388 9.50382 11.4925 9.0458C10.597 9.50382 9.62687 9.8855 8.65672 10.1908C8.50746 9.80916 8.13433 9.12214 7.83582 8.81679C8.65672 8.66412 9.47761 8.35878 10.2239 8.05344C9.77612 7.59542 9.40299 7.1374 9.02985 6.60305H8.35821V5.30534H13.4328L13.7313 5.22901L14.7015 5.76336ZM10.597 6.67939C10.8209 6.9084 11.1194 7.21374 11.4179 7.44275C11.7164 7.21374 12.0896 6.98473 12.3134 6.67939H10.597Z" fill="var(--ttime-icon-color)"/>
</g>
<defs>
<clipPath id="clip0_121_124">
<rect width="20" height="20" fill="white"/>
</clipPath>
</defs>
</svg>
