<svg t="1692808474324" class="icon" viewBox="0 0 1024 1024" version="1.1" xmlns="http://www.w3.org/2000/svg" p-id="10605" width="200" height="200"><path d="M279.6 64h64v160h-64zM375.7 128h128.1v64H375.7zM535.8 64h64v160h-64z" p-id="10606" fill="var(--ttime-icon-color)"></path><path d="M151.6 864V224c0-17.7 14.3-32 32-32h64.1v-64h-64.1c-53.1 0-96.1 43-96.1 96v640c0 53 43 96 96.1 96h416.1v-64H183.6c-17.7 0-32-14.3-32-32z" p-id="10607" fill="var(--ttime-icon-color)"></path><path d="M248.3 703c-17.7 0-32 14.3-32 32s14.3 32 32 32h287.9c17.7 0 32-14.3 32-32s-14.3-32-32-32H248.3zM664.2 543c0-17.7-14.3-32-32-32H248.3c-17.7 0-32 14.3-32 32s14.3 32 32 32h383.9c17.7 0 32-14.3 32-32zM216.3 351c0 17.7 14.3 32 32 32h383.9c17.7 0 32-14.3 32-32s-14.3-32-32-32H248.3c-17.7 0-32 14.3-32 32zM727.8 224v288l64 1V224c0-53-43-96-96-96h-64v64h64c17.7 0 32 14.3 32 32zM935.7 653.8c-3.4-32.9-17.8-62.5-40.7-83.4-18.1-16.5-45.6-28.1-77.5-32.6-31.5-4.5-64.4-1.5-92.7 8.3-52 18.1-85.4 57.1-94 109.8-7.4 45.3-2.7 85.4 14.4 122.6 14.9 32.4 37.2 59.1 60.7 87.2 12.4 14.9 25.3 30.2 37.6 47.1 21.9 30.1 53.9 47 85.7 47 10 0 20-1.7 29.6-5.1 36.4-13.1 57.3-48.3 54.5-91.7-0.8-12.9-1.9-25-2.8-35.6-3.7-42.7-5-64 5.6-82.5 15.9-27.6 22.8-59.9 19.6-91.1z m-75 59.3c-21 36.7-17.8 73.4-13.8 119.8 0.9 10.8 1.9 21.9 2.7 34.1 0.5 8.4-0.4 23.1-12.4 27.5-10.6 3.8-28.2-0.6-41.8-19.3-13.6-18.6-27.1-34.8-40.2-50.5-43.8-52.4-72.8-87.1-61.1-158.5 4.8-29.3 22.2-49.4 51.9-59.7 13.9-4.8 28.5-6.8 42.3-6.8 28 0 53.1 8.3 63.7 18 23.7 21.6 27.4 62.7 8.7 95.4z" p-id="10608" fill="var(--ttime-icon-color)"></path></svg>
