<?xml version="1.0" encoding="UTF-8"?>
<svg width="200px" height="200px" viewBox="0 0 200 200" version="1.1" xmlns="http://www.w3.org/2000/svg" xmlns:xlink="http://www.w3.org/1999/xlink">
  <title>monitor_icon_Unselected</title>
  <g id="monitor_icon_Unselected" stroke="none" stroke-width="1" fill="none" fill-rule="evenodd">
    <g id="编组-5" transform="translate(9.000000, 0.000000)" fill="var(--ttime-icon-color)">
      <path d="M150.268341,125.338993 C150.07057,125.338993 149.876346,125.339889 149.682123,125.342578 C140.492427,125.442052 134.660402,128.98189 132.351005,135.863514 C128.295371,147.945563 135.283868,169.989344 153.647297,184.536733 C155.924767,186.338914 158.215539,185.545811 159.097083,185.121031 C159.802141,184.780489 162.10799,183.429078 162.15322,180.327463 L162.155881,179.905371 C162.155881,174.56604 162.254323,169.630879 162.446773,165.237895 C162.710172,159.262291 163.807224,153.460541 165.706889,147.992164 C166.968011,144.362709 169.522183,135.384067 165.99512,130.41306 C163.04452,126.253078 155.93807,125.338993 150.268341,125.338993 M156.802763,200 C152.565322,200 148.379318,198.582273 144.892164,195.820303 C123.432689,178.821015 112.26351,151.064205 118.913225,131.257244 C123.178159,118.552362 134.336696,111.169784 149.528695,111.003994 C162.847636,110.860608 172.222687,114.578782 177.528801,122.059042 C181.274032,127.338329 184.5847,136.946973 179.095005,152.743612 C177.656509,156.884774 176.823743,161.30285 176.623312,165.875066 C176.439731,170.05566 176.345723,174.776638 176.345723,179.905371 C176.345723,180.119553 176.344836,180.331047 176.341288,180.542542 C176.23043,188.088221 171.966383,194.801367 165.212018,198.05981 C162.518609,199.360141 159.648713,200 156.802763,200" id="Fill-1"></path>
      <path d="M108,188 L21.3937288,188 C9.59687018,188 0,178.405649 0,166.613873 L0,34.3861265 C0,22.594351 9.59687018,13 21.3937288,13 L34.1568708,13 L34.1568708,27.2574177 L21.3937288,27.2574177 C17.4617397,27.2574177 14.2624859,30.4555347 14.2624859,34.3861265 L14.2624859,166.613873 C14.2624859,170.544465 17.4617397,173.742582 21.3937288,173.742582 L108,173.742582 L108,188 Z" id="Fill-3"></path>
      <path d="M148,101 L133.720081,101 L133.720081,34.5084425 C133.720081,30.55537 130.516917,27.3389616 126.580122,27.3389616 L115,27.3389616 L115,13 L126.580122,13 C138.390507,13 148,22.6483288 148,34.5084425 L148,101 Z" id="Fill-5"></path>
      <polygon id="Fill-7" points="61 27 88 27 88 13 61 13"></polygon>
      <polygon id="Fill-9" points="41 34 54 34 54 0 41 0"></polygon>
      <polygon id="Fill-10" points="95 34 108 34 108 0 95 0"></polygon>
      <path d="M113.321355,67 L33.678645,67 C29.4378276,67 26,63.8659459 26,59.9995625 C26,56.1340541 29.4378276,53 33.678645,53 L113.321355,53 C117.563062,53 121,56.1340541 121,59.9995625 C121,63.8659459 117.563062,67 113.321355,67" id="Fill-11"></path>
      <path d="M113.321355,108 L33.678645,108 C29.4378276,108 26,104.86575 26,101 C26,97.133375 29.4378276,94 33.678645,94 L113.321355,94 C117.563062,94 121,97.133375 121,101 C121,104.86575 117.563062,108 113.321355,108" id="Fill-12"></path>
      <path d="M94.9373848,148 L32.0626152,148 C28.7142178,148 26,144.865946 26,140.999563 C26,137.134054 28.7142178,134 32.0626152,134 L94.9373848,134 C98.2857822,134 101,137.134054 101,140.999563 C101,144.865946 98.2857822,148 94.9373848,148" id="Fill-13"></path>
    </g>
  </g>
</svg>
