<?xml version="1.0" encoding="UTF-8"?>
<svg width="200px" height="200px" viewBox="0 0 200 200" version="1.1" xmlns="http://www.w3.org/2000/svg" xmlns:xlink="http://www.w3.org/1999/xlink">
  <title>monitor_icon_selected</title>
  <g id="monitor_icon_selected" stroke="none" stroke-width="1" fill="none" fill-rule="evenodd">
    <g id="编组-4" transform="translate(9.000000, 0.000000)" fill="var(--ttime-icon-color)">
      <path d="M177.198042,122.059042 C180.922808,127.338329 184.215384,136.946973 178.755688,152.743612 C177.325053,156.884774 176.496837,161.30285 176.297501,165.875066 C176.114923,170.05566 176.021429,174.776638 176.021429,179.905371 C176.021429,180.119553 176.020547,180.331047 176.017019,180.542542 C175.906767,188.088221 171.66602,194.801367 164.948564,198.05981 C162.269873,199.360141 159.41566,200 156.585262,200 C152.370975,200 148.207846,198.582273 144.739748,195.820303 C123.397538,178.821015 112.289392,151.064205 118.90277,131.257244 C123.144398,118.552362 134.24196,111.169784 149.350943,111.003994 C162.597102,110.860608 171.920924,114.578782 177.198042,122.059042 Z M150.086547,125.338993 C149.889856,125.338993 149.696694,125.339889 149.503532,125.342578 C140.364053,125.442052 134.563897,128.98189 132.26712,135.863514 C128.233647,147.945563 135.183956,169.989344 153.447038,184.536733 C155.712063,186.338914 157.990318,185.545811 158.867044,185.121031 C159.568249,184.780489 161.861498,183.429078 161.906481,180.327463 L161.909127,179.905371 C161.909127,174.56604 162.007032,169.630879 162.19843,165.237895 C162.460389,159.262291 163.551447,153.460541 165.440731,147.992164 C166.694962,144.362709 169.235176,135.384067 165.727387,130.41306 C162.79291,126.253078 155.725293,125.338993 150.086547,125.338993 Z" id="形状结合"></path>
      <path d="M34.3991156,13 L34.3991156,40.0971134 L61.1046273,40.0971134 L61.1046273,13 L87.8634434,13 L87.8634434,40.0971134 L114.569844,40.0971134 L114.569844,13 L125.869491,13 C137.649767,13 147.191257,22.5694005 147.191257,34.3861265 L147.191257,34.3861265 L147.191257,100.495099 C146.819014,100.495099 146.445883,100.50401 146.072753,100.50401 C127.104377,100.70896 113.174156,109.86044 107.843715,125.606867 C101.58933,144.113886 107.976976,168.226744 122.991053,188 L122.991053,188 L21.3217658,188 C9.54149021,188 0,178.420797 0,166.613873 L0,166.613873 L0,34.3861265 C0,22.5694005 9.54149021,13 21.3217658,13 L21.3217658,13 L34.3991156,13 Z M94.8729739,133.68815 L32.2500592,133.68815 C28.9185333,133.68815 26.2080038,136.878247 26.2080038,140.816858 C26.2080038,144.746559 28.9185333,147.945567 32.2500592,147.945567 L32.2500592,147.945567 L94.8729739,147.945567 C98.2044998,147.945567 100.915029,144.746559 100.915029,140.816858 C100.915029,136.878247 98.2044998,133.68815 94.8729739,133.68815 L94.8729739,133.68815 Z M113.449562,93.3663902 L33.8838395,93.3663902 C29.6461386,93.3663902 26.2080038,96.5653983 26.2080038,100.495099 C26.2080038,104.433711 29.6461386,107.623808 33.8838395,107.623808 L33.8838395,107.623808 L113.449562,107.623808 C117.687263,107.623808 121.116514,104.433711 121.116514,100.495099 C121.116514,96.5653983 117.687263,93.3663902 113.449562,93.3663902 L113.449562,93.3663902 Z M113.449562,53.0535417 L33.8838395,53.0535417 C29.6461386,53.0535417 26.2080038,56.2436389 26.2080038,60.1822505 C26.2080038,64.1217533 29.6461386,67.3109594 33.8838395,67.3109594 L33.8838395,67.3109594 L113.449562,67.3109594 C117.687263,67.3109594 121.116514,64.1217533 121.116514,60.1822505 C121.116514,56.2436389 117.687263,53.0535417 113.449562,53.0535417 L113.449562,53.0535417 Z" id="形状结合"></path>
      <polygon id="Fill-16" points="40.7759563 34 53.704918 34 53.704918 0 40.7759563 0"></polygon>
      <polygon id="Fill-17" points="94.4808743 34 107.409836 34 107.409836 0 94.4808743 0"></polygon>
    </g>
  </g>
</svg>
