<?xml version="1.0" standalone="no"?><!DOCTYPE svg PUBLIC "-//W3C//DTD SVG 1.1//EN" "http://www.w3.org/Graphics/SVG/1.1/DTD/svg11.dtd"><svg t="1687056919395" class="icon" viewBox="0 0 1024 1024" version="1.1" xmlns="http://www.w3.org/2000/svg" p-id="2396" xmlns:xlink="http://www.w3.org/1999/xlink" width="200" height="200"><path d="M746.635636 572.416a123.136 123.136 0 0 0-35.397818 108.986182l33.512727 195.351273-175.45309-92.229819A123.578182 123.578182 0 0 0 512 770.373818c-19.898182 0-39.68 4.887273-57.297455 14.149818l-175.45309 92.229819 33.512727-195.351273a123.136 123.136 0 0 0-35.397818-108.986182l-141.963637-138.356364 196.189091-28.509091a123.019636 123.019636 0 0 0 92.672-67.328L512 160.442182l87.738182 177.780363a123.019636 123.019636 0 0 0 92.695273 67.328l196.165818 28.509091-141.963637 138.356364z m185.134546-202.635636l-229.306182-33.326546a53.248 53.248 0 0 1-40.122182-29.160727l-102.539636-207.778909A52.689455 52.689455 0 0 0 512 69.818182c-18.990545 0-38.027636 9.890909-47.802182 29.696l-102.539636 207.778909a53.294545 53.294545 0 0 1-40.122182 29.160727l-229.306182 33.326546c-43.706182 6.353455-61.160727 60.066909-29.533091 90.903272l165.934546 161.722182c12.544 12.241455 18.269091 29.905455 15.313454 47.173818l-39.168 228.375273c-5.911273 34.466909 21.480727 62.417455 52.526546 62.417455 8.168727 0 16.616727-1.931636 24.785454-6.237091l205.125818-107.822546a53.294545 53.294545 0 0 1 49.57091 0l205.125818 107.822546c8.145455 4.305455 16.593455 6.237091 24.785454 6.237091 31.045818 0 58.437818-27.950545 52.526546-62.417455l-39.168-228.375273a53.387636 53.387636 0 0 1 15.313454-47.173818l165.934546-161.722182c31.627636-30.836364 14.173091-84.549818-29.533091-90.903272z" fill="#797979" p-id="2397"></path></svg>