<svg width="20" height="20" viewBox="0 0 20 20" fill="none" xmlns="http://www.w3.org/2000/svg">
<path d="M3.26953 17.9961C2.94336 17.9707 2.70117 17.6856 2.72656 17.3594C2.75 17.0684 2.98047 16.8379 3.26953 16.8164H16.6797C17.0039 16.8164 17.2676 17.0801 17.2676 17.4043C17.2676 17.7285 17.0039 17.9922 16.6797 17.9922L3.26953 17.9961ZM1.90625 14.7637C1.58203 14.7637 1.31836 14.5 1.31836 14.1758V2.5586C1.32031 2.23438 1.58594 1.97266 1.91016 1.97461H18.1562C18.4766 1.97852 18.7344 2.23828 18.7363 2.5586V6.82422C18.7363 7.14844 18.4727 7.41211 18.1484 7.41211C17.8242 7.41211 17.5605 7.14844 17.5605 6.82422V3.73243C17.5605 3.41797 17.3066 3.16016 16.9902 3.15821H3.06836C2.75195 3.15821 2.49414 3.41407 2.49414 3.73243V13.0137C2.49219 13.3301 2.74805 13.5898 3.06445 13.5918H8.29883C8.62305 13.5918 8.88672 13.8555 8.88672 14.1797C8.88672 14.5039 8.62305 14.7676 8.29883 14.7676L1.90625 14.7637Z" fill="var(--ttime-icon-color)"/>
<path d="M11.2462 11.7559C11.2814 11.1016 11.5529 10.4922 12.0177 10.0254C12.5138 9.52734 13.1896 9.24805 13.8927 9.24805C14.5998 9.24805 15.2658 9.52344 15.7677 10.0254C15.7951 10.0527 15.8205 10.0801 15.8478 10.1094L15.3595 10.4922C15.256 10.5723 15.2912 10.7363 15.4181 10.7676L17.3361 11.2363C17.4337 11.2598 17.5295 11.1855 17.5295 11.0859L17.5392 9.10742C17.5392 8.97656 17.3908 8.90234 17.2873 8.98437L16.8341 9.33984C16.1193 8.51953 15.0685 8 13.8947 8C11.797 8 10.0861 9.66211 10.0002 11.7441C9.99625 11.832 10.0666 11.9062 10.1564 11.9062H11.092C11.174 11.9043 11.2423 11.8398 11.2462 11.7559ZM17.6154 11.9043H16.6798C16.5978 11.9043 16.5295 11.9687 16.5236 12.0527C16.4884 12.707 16.217 13.3164 15.7521 13.7832C15.256 14.2812 14.5802 14.5605 13.8771 14.5605C13.1701 14.5605 12.5041 14.2852 12.0021 13.7832C11.9748 13.7559 11.9494 13.7285 11.922 13.6992L12.4103 13.3164C12.5138 13.2363 12.4787 13.0723 12.3517 13.041L10.4337 12.5723C10.3361 12.5488 10.2404 12.623 10.2404 12.7227L10.2326 14.7031C10.2326 14.834 10.381 14.9082 10.4845 14.8262L10.9377 14.4707C11.6525 15.291 12.7033 15.8105 13.8771 15.8105C15.9748 15.8105 17.6857 14.1484 17.7716 12.0664C17.7755 11.9785 17.7052 11.9043 17.6154 11.9043Z" fill="var(--ttime-icon-color)"/>
</svg>
