<svg xmlns="http://www.w3.org/2000/svg" viewBox="0 0 32 32"><g id="copy"><path d="M27.19,30.82H9.73a3,3,0,0,1-3-3V10.4a3,3,0,0,1,3-3H27.19a3,3,0,0,1,3,3V27.83A3,3,0,0,1,27.19,30.82ZM9.73,9.91a.49.49,0,0,0-.49.49V27.83a.49.49,0,0,0,.49.49H27.19a.5.5,0,0,0,.5-.49V10.4a.5.5,0,0,0-.5-.49Z" style="fill:var(--ttime-icon-color)"/><path d="M2.94,21.87a1.25,1.25,0,0,1-1.25-1.25V6.68A4.74,4.74,0,0,1,6.43,1.94h14a1.25,1.25,0,0,1,0,2.5h-14A2.24,2.24,0,0,0,4.19,6.68V20.62A1.25,1.25,0,0,1,2.94,21.87Z" style="fill:var(--ttime-icon-color)"/></g></svg>
