<svg id="图层_1" data-name="图层 1" xmlns="http://www.w3.org/2000/svg" viewBox="0 0 32 32"><path d="M27.19,30.82H9.73a3,3,0,0,1-3-3V10.4a3,3,0,0,1,3-3H27.19a3,3,0,0,1,3,3V27.83A3,3,0,0,1,27.19,30.82ZM9.73,9.91a.49.49,0,0,0-.49.49V27.83a.49.49,0,0,0,.49.49H27.19a.51.51,0,0,0,.5-.49V10.4a.51.51,0,0,0-.5-.49Z" style="fill:var(--ttime-icon-color)"/><path d="M2.94,21.87a1.25,1.25,0,0,1-1.25-1.25V6.68A4.74,4.74,0,0,1,6.43,1.94h14a1.25,1.25,0,0,1,0,2.5h-14A2.24,2.24,0,0,0,4.19,6.68V20.62A1.25,1.25,0,0,1,2.94,21.87Z" style="fill:var(--ttime-icon-color)"/><path d="M23.34,20.51l-.1.46a4.32,4.32,0,0,1-4.66,3.59c-3.11-.17-4.83-2-5-5.35.17-3.49,1.86-5.34,5-5.55a4.54,4.54,0,0,1,4.48,3.19l.18.52L20.82,18l-.14-.45a2.05,2.05,0,0,0-2.07-1.63c-.95.06-2.29.47-2.43,3.23.11,2.71,1.44,3.15,2.44,3.22a2.14,2.14,0,0,0,2.19-2l.1-.54Z" style="fill:var(--ttime-icon-color)"/></svg>
