<svg t="1696749363946" class="icon" viewBox="0 0 1024 1024" version="1.1" xmlns="http://www.w3.org/2000/svg" p-id="4381" width="100" height="100"><path d="M927.616 465.6C923.328 236.704 745.888 51.808 528 51.808h-32c-217.888 0-395.328 184.896-399.616 413.76C58.112 487.744 32 528.672 32 576v64c0 70.592 57.408 128 128 128s128-57.408 128-128v-64a128.064 128.064 0 0 0-126.784-127.872C173.728 262.688 318.912 115.808 496 115.808h32c177.12 0 322.272 146.88 334.784 332.32A128.064 128.064 0 0 0 736 576v64c0 57.792 38.72 106.176 91.392 122.016a337.504 337.504 0 0 1-191.936 124.48A79.712 79.712 0 0 0 560 832a80 80 0 1 0 0 160 79.68 79.68 0 0 0 67.872-38.112 402.432 402.432 0 0 0 278.24-193.6C955.968 742.816 992 695.776 992 640v-64c0-47.328-26.112-88.256-64.384-110.4zM224 576v64c0 35.296-28.704 64-64 64s-64-28.704-64-64v-64c0-35.296 28.704-64 64-64s64 28.704 64 64z m704 64c0 34.304-27.2 62.176-61.12 63.712l-2.496-1.184c-0.224 0.512-0.576 0.928-0.8 1.408A64 64 0 0 1 800 640v-64c0-35.296 28.704-64 64-64s64 28.704 64 64v64z" p-id="4382" fill="var(--ttime-icon-color"></path></svg>
