<svg width="22" height="22" viewBox="0 0 22 22" fill="none" xmlns="http://www.w3.org/2000/svg">
<path d="M9.17914 19.516H5.27133C4.90213 19.516 4.53655 19.4432 4.19546 19.302C3.85437 19.1607 3.54445 18.9536 3.28339 18.6925C3.02233 18.4315 2.81524 18.1215 2.67396 17.7804C2.53267 17.4394 2.45995 17.0738 2.45995 16.7046V4.99722C2.45995 4.62802 2.53267 4.26244 2.67396 3.92135C2.81524 3.58026 3.02233 3.27034 3.28339 3.00928C3.54445 2.74822 3.85437 2.54113 4.19546 2.39985C4.53655 2.25856 4.90213 2.18584 5.27133 2.18584H14.8149C15.1841 2.18584 15.5497 2.25856 15.8908 2.39985C16.2319 2.54113 16.5418 2.74822 16.8029 3.00928C17.0639 3.27034 17.271 3.58026 17.4123 3.92135C17.5536 4.26244 17.6263 4.62802 17.6263 4.99722V8.78956C17.6263 8.89506 17.6056 8.99952 17.5652 9.09699C17.5248 9.19446 17.4657 9.28303 17.3911 9.35763C17.3165 9.43223 17.2279 9.49141 17.1305 9.53179C17.033 9.57216 16.9286 9.59294 16.8231 9.59294C16.7176 9.59294 16.6131 9.57216 16.5156 9.53179C16.4182 9.49141 16.3296 9.43223 16.255 9.35763C16.1804 9.28303 16.1213 9.19446 16.0809 9.09699C16.0406 8.99952 16.0198 8.89506 16.0198 8.78956V4.99722C16.0198 4.83899 15.9886 4.68231 15.9281 4.53613C15.8675 4.38995 15.7788 4.25713 15.6669 4.14524C15.555 4.03336 15.4222 3.94461 15.276 3.88406C15.1298 3.82351 14.9732 3.79234 14.8149 3.79234H5.27133C5.1131 3.79234 4.95642 3.82351 4.81024 3.88406C4.66406 3.94461 4.53123 4.03336 4.41935 4.14524C4.30747 4.25713 4.21872 4.38995 4.15817 4.53613C4.09762 4.68231 4.06645 4.83899 4.06645 4.99722V16.7086C4.06645 16.8668 4.09762 17.0235 4.15817 17.1697C4.21872 17.3159 4.30747 17.4487 4.41935 17.5606C4.53123 17.6725 4.66406 17.7612 4.81024 17.8218C4.95642 17.8823 5.1131 17.9135 5.27133 17.9135H9.17914C9.28463 17.9135 9.3891 17.9342 9.48657 17.9746C9.58404 18.0149 9.6726 18.0741 9.7472 18.1487C9.82181 18.2233 9.88098 18.3118 9.92136 18.4093C9.96174 18.5068 9.98252 18.6112 9.98252 18.7167C9.98252 18.8222 9.96174 18.9267 9.92136 19.0241C9.88098 19.1216 9.82181 19.2102 9.7472 19.2847C9.6726 19.3593 9.58404 19.4185 9.48657 19.4589C9.3891 19.4992 9.28463 19.52 9.17914 19.52V19.516Z" fill="var(--ttime-icon-color)"/>
<path d="M13.5719 6.26031H6.46511C6.25209 6.26027 6.04782 6.17563 5.89721 6.02499C5.7466 5.87436 5.66199 5.67007 5.66199 5.45706C5.66199 5.24405 5.7466 5.03976 5.89721 4.88912C6.04782 4.73849 6.25209 4.65384 6.46511 4.65381H13.5719C13.7849 4.65384 13.9891 4.73849 14.1398 4.88912C14.2904 5.03976 14.375 5.24405 14.375 5.45706C14.375 5.67007 14.2904 5.87436 14.1398 6.02499C13.9891 6.17563 13.7849 6.26027 13.5719 6.26031ZM10.5004 8.83573H6.46511C6.25209 8.83569 6.04782 8.75105 5.89721 8.60041C5.7466 8.44978 5.66199 8.24549 5.66199 8.03248C5.66199 7.81946 5.7466 7.61517 5.89721 7.46454C6.04782 7.31391 6.25209 7.22926 6.46511 7.22923H10.5004C10.6059 7.22921 10.7104 7.24997 10.8079 7.29033C10.9053 7.33069 10.9939 7.38986 11.0685 7.46445C11.1431 7.53904 11.2023 7.62759 11.2427 7.72506C11.283 7.82252 11.3038 7.92698 11.3038 8.03248C11.3038 8.13797 11.283 8.24243 11.2427 8.3399C11.2023 8.43736 11.1431 8.52592 11.0685 8.60051C10.9939 8.6751 10.9053 8.73426 10.8079 8.77462C10.7104 8.81498 10.6059 8.83574 10.5004 8.83573ZM14.6522 20.2128C13.6015 20.2128 12.5744 19.9012 11.7008 19.3174C10.8271 18.7337 10.1462 17.904 9.74412 16.9333C9.34203 15.9625 9.23683 14.8944 9.44181 13.8638C9.6468 12.8333 10.1528 11.8867 10.8957 11.1438C11.6387 10.4008 12.5853 9.89483 13.6158 9.68985C14.6463 9.48486 15.7145 9.59007 16.6852 9.99216C17.656 10.3942 18.4857 11.0752 19.0694 11.9488C19.6531 12.8224 19.9647 13.8495 19.9647 14.9003C19.9623 16.3085 19.4019 17.6584 18.4061 18.6541C17.4103 19.6499 16.0605 20.2104 14.6522 20.2128ZM14.6522 11.1943C13.9193 11.1943 13.2027 11.4116 12.5933 11.8188C11.9838 12.2261 11.5088 12.8049 11.2283 13.482C10.9478 14.1592 10.8744 14.9044 11.0174 15.6233C11.1604 16.3422 11.5134 17.0025 12.0317 17.5208C12.55 18.0391 13.2103 18.392 13.9292 18.535C14.6481 18.678 15.3933 18.6046 16.0704 18.3242C16.7476 18.0437 17.3264 17.5686 17.7336 16.9592C18.1409 16.3498 18.3582 15.6332 18.3582 14.9003C18.3558 13.9181 17.9646 12.9769 17.2701 12.2824C16.5756 11.5879 15.6344 11.1967 14.6522 11.1943Z" fill="var(--ttime-icon-color)"/>
<path d="M14.2687 16.1834C14.0557 16.1834 13.8514 16.0988 13.7007 15.9482C13.5501 15.7975 13.4655 15.5932 13.4655 15.3802V13.0929C13.4654 12.9874 13.4862 12.883 13.5266 12.7855C13.5669 12.688 13.6261 12.5995 13.7007 12.5249C13.7753 12.4503 13.8638 12.3911 13.9613 12.3507C14.0587 12.3103 14.1632 12.2896 14.2687 12.2896C14.3742 12.2896 14.4787 12.3103 14.5761 12.3507C14.6736 12.3911 14.7621 12.4503 14.8367 12.5249C14.9113 12.5995 14.9705 12.688 15.0108 12.7855C15.0512 12.883 15.072 12.9874 15.072 13.0929V15.3802C15.072 15.5932 14.9873 15.7975 14.8367 15.9482C14.686 16.0988 14.4817 16.1834 14.2687 16.1834Z" fill="var(--ttime-icon-color)"/>
<path d="M16.4355 16.315H14.2687C14.0557 16.315 13.8514 16.2303 13.7008 16.0797C13.5502 15.929 13.4656 15.7248 13.4656 15.5117C13.4656 15.2987 13.5502 15.0944 13.7008 14.9438C13.8514 14.7932 14.0557 14.7085 14.2687 14.7085H16.4355C16.6485 14.7085 16.8527 14.7932 17.0034 14.9438C17.154 15.0944 17.2386 15.2987 17.2386 15.5117C17.2386 15.7248 17.154 15.929 17.0034 16.0797C16.8527 16.2303 16.6485 16.315 16.4355 16.315Z" fill="var(--ttime-icon-color)"/>
</svg>
