<svg width="20" height="20" viewBox="0 0 20 20" fill="none" xmlns="http://www.w3.org/2000/svg">
<path d="M3.08 9.98C3.08 10.135 3.11052 10.2884 3.16982 10.4316C3.22912 10.5747 3.31604 10.7048 3.42562 10.8144C3.53519 10.924 3.66527 11.0109 3.80844 11.0702C3.9516 11.1295 4.10504 11.16 4.26 11.16C4.41496 11.16 4.5684 11.1295 4.71157 11.0702C4.85473 11.0109 4.98481 10.924 5.09439 10.8144C5.20396 10.7048 5.29088 10.5747 5.35018 10.4316C5.40948 10.2884 5.44 10.135 5.44 9.98C5.44 9.66705 5.31568 9.36691 5.09439 9.14562C4.87309 8.92432 4.57296 8.8 4.26 8.8C3.94705 8.8 3.64691 8.92432 3.42562 9.14562C3.20432 9.36691 3.08 9.66705 3.08 9.98Z" fill="var(--ttime-icon-color)"/>
<path d="M8.8 9.98C8.8 10.293 8.92432 10.5931 9.14562 10.8144C9.36691 11.0357 9.66705 11.16 9.98 11.16C10.293 11.16 10.5931 11.0357 10.8144 10.8144C11.0357 10.5931 11.16 10.293 11.16 9.98C11.16 9.66705 11.0357 9.36691 10.8144 9.14562C10.5931 8.92432 10.293 8.8 9.98 8.8C9.66705 8.8 9.36691 8.92432 9.14562 9.14562C8.92432 9.36691 8.8 9.66705 8.8 9.98Z" fill="var(--ttime-icon-color)"/>
<path d="M14.51 9.98C14.51 10.293 14.6343 10.5931 14.8556 10.8144C15.0769 11.0357 15.377 11.16 15.69 11.16C16.003 11.16 16.3031 11.0357 16.5244 10.8144C16.7457 10.5931 16.87 10.293 16.87 9.98C16.87 9.66705 16.7457 9.36691 16.5244 9.14562C16.3031 8.92432 16.003 8.8 15.69 8.8C15.377 8.8 15.0769 8.92432 14.8556 9.14562C14.6343 9.36691 14.51 9.66705 14.51 9.98Z" fill="var(--ttime-icon-color)"/>
</svg>
