<svg width="24" height="24" viewBox="0 0 24 24" fill="none" xmlns="http://www.w3.org/2000/svg">
<path d="M19.0172 8.64609C17.9438 5.8125 15.2086 3.79688 12.0047 3.79688C8.80078 3.79688 6.06563 5.81016 4.99219 8.64375C2.97422 9.17578 1.48828 11.0203 1.5 13.2094C1.51406 15.6562 3.4125 17.6461 5.80313 17.8594C5.91328 17.8687 6.00703 17.782 6.00703 17.6719V16.2562C6.00703 16.1625 5.93672 16.0828 5.84297 16.0711C5.21016 15.9914 4.6125 15.7148 4.15313 15.2625C3.59063 14.7117 3.28125 13.9711 3.28125 13.1859C3.28125 12.5297 3.49453 11.9109 3.89531 11.3953C4.28672 10.8937 4.8375 10.5305 5.44453 10.3711L6.33281 10.1367L6.65859 9.27656C6.86016 8.74219 7.14141 8.24062 7.49531 7.78828C7.84453 7.33828 8.25938 6.94453 8.72344 6.61641C9.68672 5.93906 10.8211 5.58047 12.0047 5.58047C13.1883 5.58047 14.3227 5.93906 15.2859 6.61875C15.7523 6.94687 16.1648 7.34062 16.5141 7.79062C16.868 8.24297 17.1492 8.74453 17.3508 9.27891L17.6742 10.1367L18.5602 10.3711C19.8305 10.7086 20.7188 11.8641 20.7188 13.1836C20.7188 13.9711 20.4094 14.7094 19.8469 15.2602C19.3898 15.7102 18.7945 15.9891 18.1617 16.0687C18.068 16.0805 18 16.1602 18 16.2539V17.6719C18 17.782 18.0961 17.8687 18.2062 17.8594C20.5898 17.6437 22.4836 15.6562 22.5 13.2141C22.5141 11.025 21.0305 9.18047 19.0172 8.64609Z" fill="var(--ttime-icon-color)"/>
<path d="M8.10116 15.6C6.77971 15.5315 6.07966 14.7398 6 13.2259C6.09555 11.7291 6.7958 10.9207 8.10116 10.8C9.39041 10.9205 10.0907 11.7291 10.2023 13.2259C10.1068 14.7401 9.4061 15.5315 8.10116 15.6ZM8.10116 14.7484C8.83319 14.7141 9.22335 14.2065 9.27102 13.2259C9.20725 12.2627 8.8173 11.7548 8.10116 11.7033C7.36892 11.7548 6.98691 12.2627 6.95513 13.2259C6.98691 14.2065 7.36892 14.7141 8.10116 14.7484ZM10.6988 13.2259C10.7944 11.7291 11.4946 10.9207 12.8 10.8C13.6435 10.8515 14.0811 11.0927 14.1131 11.5225C14.097 11.8152 13.9776 11.9612 13.7549 11.9612C13.675 11.9612 13.5717 11.9442 13.4446 11.9097C13.3014 11.8238 13.0864 11.7722 12.8 11.7548C12.0677 11.8064 11.6857 12.3056 11.654 13.2516C11.7016 14.1807 12.0836 14.6626 12.8 14.6969C13.0066 14.7143 13.2297 14.6542 13.4684 14.5163C13.5956 14.4478 13.6991 14.4131 13.7787 14.4131C14.0014 14.4304 14.1369 14.5853 14.1846 14.8775C14.1526 15.3419 13.6911 15.5828 12.7998 15.6C11.4785 15.5315 10.7783 14.7401 10.6988 13.2259ZM14.9201 15.1098V11.3937C14.904 11.0671 15.0552 10.8949 15.3738 10.8775H16.4481C17.4509 10.8949 17.9601 11.3937 17.9762 12.3743C17.9442 13.0627 17.5703 13.4756 16.854 13.613L17.8806 14.826C17.9601 14.9123 18 15.0065 18 15.1098C17.968 15.4194 17.8168 15.5742 17.5463 15.5742C17.3709 15.5742 17.2515 15.5315 17.1881 15.4452L15.8271 13.6645V15.1098C15.811 15.4194 15.6601 15.5742 15.3734 15.5742C15.0711 15.5742 14.9201 15.4194 14.9201 15.1098ZM15.8273 11.7808V12.942H16.4481C16.814 12.942 17.0051 12.7529 17.0212 12.3743C17.0051 11.996 16.8142 11.798 16.4481 11.7808H15.8273Z" fill="var(--ttime-icon-color)"/>
</svg>
