<svg xmlns="http://www.w3.org/2000/svg" viewBox="0 0 32 32"><g id="play"><path d="M16.58,28.4a2,2,0,0,1-1-.27L9.46,24.5a1.64,1.64,0,0,0-.86-.24H4.7A4.25,4.25,0,0,1,.5,20V10.83A4.26,4.26,0,0,1,4.7,6.54H8.61a1.64,1.64,0,0,0,.86-.24l6.11-3.62a2,2,0,0,1,2,0,2,2,0,0,1,1,1.75v22a2,2,0,0,1-1,1.75A2,2,0,0,1,16.58,28.4ZM4.7,9A1.76,1.76,0,0,0,3,10.83V20a1.77,1.77,0,0,0,1.73,1.8H8.6a4.19,4.19,0,0,1,2.1.57l5.39,3.19V5.27L10.71,8.46A4.13,4.13,0,0,1,8.61,9Z" style="fill:var(--ttime-icon-color)"/><path d="M22,22.69a1.24,1.24,0,0,1-1-.54,1.27,1.27,0,0,1,.32-1.74,6.14,6.14,0,0,0,2.63-5.07,6.21,6.21,0,0,0-2.48-5,1.24,1.24,0,0,1-.26-1.74,1.21,1.21,0,0,1,1.72-.27,8.73,8.73,0,0,1-.22,14.11A1.18,1.18,0,0,1,22,22.69Z" style="fill:var(--ttime-icon-color)"/><path d="M25.3,27.82a1.2,1.2,0,0,1-.94-.45,1.25,1.25,0,0,1,.15-1.75A13.51,13.51,0,0,0,29,15.34,13.38,13.38,0,0,0,24.65,5.18a1.27,1.27,0,0,1-.13-1.76,1.23,1.23,0,0,1,1.74-.13A15.9,15.9,0,0,1,31.5,15.34a15.81,15.81,0,0,1-5.41,12.19A1.19,1.19,0,0,1,25.3,27.82Z" style="fill:var(--ttime-icon-color)"/></g></svg>
