<svg xmlns="http://www.w3.org/2000/svg" viewBox="0 0 32 32"><g id="set_up"><path d="M18.35,31.64H14a2.79,2.79,0,0,1-2.79-2.79v-.67a13.34,13.34,0,0,1-2.8-1.58L7.69,27a2.79,2.79,0,0,1-3.81-1L1.42,21.71a2.79,2.79,0,0,1,1-3.81l.68-.39A14.28,14.28,0,0,1,3,16.05a14.48,14.48,0,0,1,.08-1.47l-.68-.39a2.79,2.79,0,0,1-1-3.81L3.88,6.12a2.79,2.79,0,0,1,3.81-1l.68.39a12.87,12.87,0,0,1,2.8-1.57V3.24A2.8,2.8,0,0,1,14,.45h4.39a2.8,2.8,0,0,1,2.79,2.79v.68a12.87,12.87,0,0,1,2.8,1.57l.68-.39a2.79,2.79,0,0,1,3.81,1l2.46,4.26a2.81,2.81,0,0,1-1,3.81l-.68.39a14.48,14.48,0,0,1,.08,1.47,14.13,14.13,0,0,1-.08,1.46l.68.39a2.77,2.77,0,0,1,1.29,1.7,2.73,2.73,0,0,1-.27,2.11L28.43,26a2.79,2.79,0,0,1-3.81,1l-.68-.39a13.34,13.34,0,0,1-2.8,1.58v.67A2.79,2.79,0,0,1,18.35,31.64ZM8.41,23.83a2.09,2.09,0,0,1,1.3.45,10.29,10.29,0,0,0,2.76,1.56,2.09,2.09,0,0,1,1.35,1.95v1.06A.14.14,0,0,0,14,29h4.39a.14.14,0,0,0,.14-.13V27.79a2.09,2.09,0,0,1,1.35-1.95,10.29,10.29,0,0,0,2.76-1.56,2.09,2.09,0,0,1,2.34-.17l1,.58a.14.14,0,0,0,.19-.05l2.46-4.25a.17.17,0,0,0-.05-.19l-1-.58a2.08,2.08,0,0,1-1-2.1,10.37,10.37,0,0,0,.1-1.47,10.18,10.18,0,0,0-.1-1.47,2.09,2.09,0,0,1,1-2.11l1-.58a.16.16,0,0,0,.05-.18L26.13,7.45a.15.15,0,0,0-.19,0l-1,.58a2.09,2.09,0,0,1-2.34-.17,10.3,10.3,0,0,0-2.76-1.55,2.11,2.11,0,0,1-1.35-2V3.24a.14.14,0,0,0-.14-.13H14a.14.14,0,0,0-.14.13V4.3a2.11,2.11,0,0,1-1.35,2A10.3,10.3,0,0,0,9.71,7.81,2.09,2.09,0,0,1,7.37,8l-1-.58a.13.13,0,0,0-.18,0L3.72,11.71a.13.13,0,0,0,0,.18l1,.58a2.08,2.08,0,0,1,1,2.11,10.18,10.18,0,0,0-.1,1.47,10.37,10.37,0,0,0,.1,1.47,2.07,2.07,0,0,1-1,2.1l-1,.58a.15.15,0,0,0,0,.19l2.46,4.25a.13.13,0,0,0,.19.05l1-.58A2.08,2.08,0,0,1,8.41,23.83Zm3.12,4.49Zm9.25,0ZM3.17,17.89Zm0-3.68Zm13,8a6.14,6.14,0,1,1,6.14-6.13A6.14,6.14,0,0,1,16.15,22.18Zm0-9.61a3.48,3.48,0,1,0,3.48,3.48A3.48,3.48,0,0,0,16.15,12.57Z" style="fill:var(--ttime-icon-color)"/></g></svg>
