<svg id="keyboard" xmlns="http://www.w3.org/2000/svg" viewBox="0 0 32 32"><path d="M26.55,27.32H5.43A5.07,5.07,0,0,1,.49,22.14V10.49A5.07,5.07,0,0,1,5.43,5.32H26.55a5.06,5.06,0,0,1,4.94,5.17V22.14A5.06,5.06,0,0,1,26.55,27.32ZM5.43,6.47a3.94,3.94,0,0,0-3.84,4V22.14a3.94,3.94,0,0,0,3.84,4H26.55a3.94,3.94,0,0,0,3.84-4V10.49a3.94,3.94,0,0,0-3.84-4Z" style="fill:var(--ttime-icon-color)"/><rect x="3.53" y="10.21" width="2.76" height="1.15" style="fill:var(--ttime-icon-color)"/><rect x="7.97" y="10.21" width="2.76" height="1.15" style="fill:var(--ttime-icon-color)"/><rect x="12.4" y="10.21" width="2.76" height="1.15" style="fill:var(--ttime-icon-color)"/><rect x="16.84" y="10.21" width="2.76" height="1.15" style="fill:var(--ttime-icon-color)"/><rect x="21.28" y="10.21" width="2.76" height="1.15" style="fill:var(--ttime-icon-color)"/><rect x="25.72" y="10.21" width="2.76" height="1.15" style="fill:var(--ttime-icon-color)"/><rect x="3.53" y="14.37" width="2.76" height="1.15" style="fill:var(--ttime-icon-color)"/><rect x="7.97" y="14.37" width="2.76" height="1.15" style="fill:var(--ttime-icon-color)"/><rect x="12.41" y="14.37" width="2.76" height="1.15" style="fill:var(--ttime-icon-color)"/><rect x="16.85" y="14.37" width="2.76" height="1.15" style="fill:var(--ttime-icon-color)"/><rect x="21.29" y="14.37" width="2.76" height="1.15" style="fill:var(--ttime-icon-color)"/><rect x="25.73" y="14.37" width="2.76" height="1.15" style="fill:var(--ttime-icon-color)"/><rect x="3.52" y="18.53" width="2.76" height="1.15" style="fill:var(--ttime-icon-color)"/><rect x="7.96" y="18.53" width="2.76" height="1.15" style="fill:var(--ttime-icon-color)"/><rect x="12.4" y="18.53" width="2.76" height="1.15" style="fill:var(--ttime-icon-color)"/><rect x="16.84" y="18.53" width="2.76" height="1.15" style="fill:var(--ttime-icon-color)"/><rect x="21.28" y="18.53" width="2.76" height="1.15" style="fill:var(--ttime-icon-color)"/><rect x="25.72" y="18.53" width="2.76" height="1.15" style="fill:var(--ttime-icon-color)"/><rect x="6.51" y="22.69" width="19.06" height="1.15" style="fill:var(--ttime-icon-color)"/></svg>
