<svg id="substitution" xmlns="http://www.w3.org/2000/svg" viewBox="0 0 32 32"><path d="M30.33,14H1.71a1.18,1.18,0,0,1-1.06-.75,1.52,1.52,0,0,1,.11-1.42L6.58,3a1.09,1.09,0,0,1,1.66-.27,1.49,1.49,0,0,1,.24,1.89L4.09,11.28H30.33a1.27,1.27,0,0,1,1.19,1.35A1.28,1.28,0,0,1,30.33,14Z" style="fill:var(--ttime-icon-color)"/><path d="M24.86,28.49a1.09,1.09,0,0,1-.71-.27,1.46,1.46,0,0,1-.25-1.88L28,20.09H1.71a1.36,1.36,0,0,1,0-2.7H30.33a1.18,1.18,0,0,1,1.06.74,1.47,1.47,0,0,1-.1,1.41l-5.48,8.4A1.13,1.13,0,0,1,24.86,28.49Z" style="fill:var(--ttime-icon-color)"/></svg>
