<svg xmlns="http://www.w3.org/2000/svg" viewBox="0 0 32 32"><g id="thumbtack"><path d="M16.26,31a1.14,1.14,0,0,1-1.14-1.14V19.91a1.14,1.14,0,1,1,2.27,0v9.91A1.14,1.14,0,0,1,16.26,31Z" style="fill:var(--ttime-icon-color)"/><path d="M25.37,20.78H7.28a3,3,0,0,1-2.34-1.07,2.79,2.79,0,0,1-.57-2.3,11.9,11.9,0,0,1,7-8.6,1.3,1.3,0,0,0,.74-1,1.4,1.4,0,0,0-.44-1.12,6.38,6.38,0,0,1-1.56-2.44A2.45,2.45,0,0,1,12.44,1h7.89A2.46,2.46,0,0,1,22.66,4.2a6.4,6.4,0,0,1-1.39,2.28,1.45,1.45,0,0,0-.44,1.17l0,.29a1.25,1.25,0,0,0,.71,1,12.24,12.24,0,0,1,2.37,1.45,1.15,1.15,0,0,1,.2,1.6,1.12,1.12,0,0,1-1.59.2A10,10,0,0,0,20.62,11a3.54,3.54,0,0,1-2-2.8l0-.29a3.8,3.8,0,0,1,1.05-3,4.19,4.19,0,0,0,.9-1.46.13.13,0,0,0,0-.12.19.19,0,0,0-.16-.09H12.44a.19.19,0,0,0-.15.09.15.15,0,0,0,0,.13,4.19,4.19,0,0,0,1,1.58,3.65,3.65,0,0,1,1.11,3,3.56,3.56,0,0,1-2.1,2.85A9.59,9.59,0,0,0,6.6,17.85a.49.49,0,0,0,.09.41.77.77,0,0,0,.59.24H25.37a.7.7,0,0,0,.55-.25.58.58,0,0,0,.12-.48,9.6,9.6,0,0,0-.93-2.56,1.15,1.15,0,0,1,.45-1.55,1.13,1.13,0,0,1,1.54.46,11.89,11.89,0,0,1,1.17,3.21,2.88,2.88,0,0,1-.6,2.37A3,3,0,0,1,25.37,20.78Z" style="fill:var(--ttime-icon-color)"/></g></svg>
