<svg xmlns="http://www.w3.org/2000/svg" viewBox="0 0 32 32"><g id="thumbtack1"><path d="M27,14.45a11.7,11.7,0,0,1,1.16,3.17,2,2,0,0,1-2,2.29h-20a1.88,1.88,0,0,1-2-2.21,11.82,11.82,0,0,1,7-8.52,2.63,2.63,0,0,0,1.56-2.12h0A2.74,2.74,0,0,0,12,4.79a5.76,5.76,0,0,1-1.42-2.2A1.45,1.45,0,0,1,11.94.68h8.71A1.43,1.43,0,0,1,22,2.56a5.62,5.62,0,0,1-1.26,2.06A2.85,2.85,0,0,0,20,6.91l0,.32a2.63,2.63,0,0,0,1.5,2.08,12.47,12.47,0,0,1,2.38,1.44A16,16,0,0,1,27,14.45Z" style="fill:var(--ttime-icon-color)"/><path d="M16.22,31.68A1.19,1.19,0,0,1,15,30.49V20.2a1.2,1.2,0,0,1,2.4,0V30.49A1.19,1.19,0,0,1,16.22,31.68Z" style="fill:var(--ttime-icon-color)"/></g></svg>
