<svg t="1692794899978" class="icon" viewBox="0 0 1024 1024" version="1.1" xmlns="http://www.w3.org/2000/svg" p-id="4072" width="200" height="200"><path d="M512 1023.998537A475.420846 475.420846 0 0 1 53.584592 421.85975a54.856251 54.856251 0 1 1 105.872565 29.073814A365.708343 365.708343 0 1 0 512 182.869348a361.502697 361.502697 0 0 0-169.688671 41.507897A54.856251 54.856251 0 1 1 291.477869 128.013097 475.420846 475.420846 0 1 1 512 1023.998537z" fill="var(--ttime-icon-color)" p-id="4073"></path><path d="M566.856251 297.518914h-54.856251a18.285417 18.285417 0 0 0-18.285417 18.285417v224.727777a18.285417 18.285417 0 0 1-18.285417 18.285417h-169.688671a18.285417 18.285417 0 0 0-18.285418 18.285417v54.856252a18.285417 18.285417 0 0 0 18.285418 18.285417H566.856251a18.285417 18.285417 0 0 0 18.285418-18.285417V315.804331a18.285417 18.285417 0 0 0-18.285418-18.285417zM402.287497 320.375685a54.856251 54.856251 0 0 1-19.931105-3.657083l-151.403254-59.244752a54.856251 54.856251 0 0 1-31.085209-71.130272l59.244752-151.403254a54.856251 54.856251 0 0 1 102.215482 39.862209l-40.227918 100.38694 100.38694 39.313647A54.856251 54.856251 0 0 1 402.287497 320.375685z" fill="var(--ttime-icon-color)" p-id="4074"></path></svg>
