<svg width="24" height="24" viewBox="0 0 24 24" fill="none" xmlns="http://www.w3.org/2000/svg">
<path d="M19.0172 8.64609C17.9437 5.8125 15.2086 3.79688 12.0047 3.79688C8.80077 3.79688 6.06562 5.81016 4.99218 8.64375C2.97421 9.17578 1.48827 11.0203 1.49999 13.2094C1.51406 15.6562 3.41249 17.6461 5.80312 17.8594C5.91327 17.8687 6.00702 17.782 6.00702 17.6719V16.2562C6.00702 16.1625 5.93671 16.0828 5.84296 16.0711C5.21015 15.9914 4.61249 15.7148 4.15312 15.2625C3.59062 14.7117 3.28124 13.9711 3.28124 13.1859C3.28124 12.5297 3.49452 11.9109 3.8953 11.3953C4.28671 10.8937 4.83749 10.5305 5.44452 10.3711L6.33281 10.1367L6.65859 9.27656C6.86015 8.74219 7.1414 8.24062 7.4953 7.78828C7.84452 7.33828 8.25937 6.94453 8.72343 6.61641C9.68671 5.93906 10.8211 5.58047 12.0047 5.58047C13.1883 5.58047 14.3226 5.93906 15.2859 6.61875C15.7523 6.94687 16.1648 7.34062 16.5141 7.79062C16.868 8.24297 17.1492 8.74453 17.3508 9.27891L17.6742 10.1367L18.5602 10.3711C19.8305 10.7086 20.7187 11.8641 20.7187 13.1836C20.7187 13.9711 20.4094 14.7094 19.8469 15.2602C19.3898 15.7102 18.7945 15.9891 18.1617 16.0687C18.068 16.0805 18 16.1602 18 16.2539V17.6719C18 17.782 18.0961 17.8687 18.2062 17.8594C20.5898 17.6437 22.4836 15.6562 22.5 13.2141C22.5141 11.025 21.0305 9.18047 19.0172 8.64609Z" fill="var(--ttime-icon-color)"/>
<path d="M8.83359 15.3844C8.87577 14.5992 9.20156 13.868 9.75937 13.3078C10.3547 12.7102 11.1656 12.375 12.0094 12.375C12.8578 12.375 13.657 12.7055 14.2594 13.3078C14.2922 13.3406 14.3226 13.3734 14.3555 13.4086L13.7695 13.868C13.6453 13.9641 13.6875 14.1609 13.8398 14.1984L16.1414 14.7609C16.2586 14.7891 16.3734 14.7 16.3734 14.5805L16.3851 12.2062C16.3851 12.0492 16.207 11.9602 16.0828 12.0586L15.5391 12.4852C14.6812 11.5008 13.4203 10.8773 12.0117 10.8773C9.49453 10.8773 7.4414 12.8719 7.33828 15.3703C7.33359 15.4758 7.41796 15.5648 7.52578 15.5648H8.64843C8.74687 15.5625 8.8289 15.4852 8.83359 15.3844ZM16.4766 15.5625H15.3539C15.2555 15.5625 15.1734 15.6398 15.1664 15.7406C15.1242 16.5258 14.7984 17.257 14.2406 17.8172C13.6453 18.4148 12.8344 18.75 11.9906 18.75C11.1422 18.75 10.343 18.4195 9.74062 17.8172C9.70781 17.7844 9.67734 17.7516 9.64453 17.7164L10.2305 17.257C10.3547 17.1609 10.3125 16.9641 10.1602 16.9266L7.85859 16.3641C7.7414 16.3359 7.62656 16.425 7.62656 16.5445L7.61718 18.9211C7.61718 19.0781 7.79531 19.1672 7.91952 19.0687L8.46328 18.6422C9.32109 19.6266 10.582 20.25 11.9906 20.25C14.5078 20.25 16.5609 18.2555 16.6641 15.757C16.6687 15.6516 16.5844 15.5625 16.4766 15.5625Z" fill="var(--ttime-icon-color)"/>
</svg>
