<?xml version="1.0" encoding="UTF-8"?>
<svg width="200px" height="200px" viewBox="0 0 200 200" version="1.1" xmlns="http://www.w3.org/2000/svg" xmlns:xlink="http://www.w3.org/1999/xlink">
  <title>history_icon</title>
  <g id="history_icon" stroke="none" stroke-width="1" fill="none" fill-rule="evenodd">
    <path d="M100,181.816514 C54.8858349,181.816514 18.1834862,145.114165 18.1834862,100 C18.1834862,54.8858349 54.8858349,18.1834862 100,18.1834862 C145.114165,18.1834862 181.816514,54.8858349 181.816514,100 C181.816514,145.114165 145.114165,181.816514 100,181.816514 M100,2 C45.9624404,2 2,45.9624404 2,100 C2,154.03756 45.9624404,198 100,198 C154.03756,198 198,154.03756 198,100 C198,45.9624404 154.03756,2 100,2" id="Fill-1" fill="var(--ttime-icon-color)"></path>
    <path d="M133.533892,115.109712 L93.9742587,115.109712 C89.5049193,115.109712 85.8825156,111.487308 85.8825156,107.017969 L85.8825156,53.0730147 C85.8825156,48.6036752 89.5049193,44.9812716 93.9742587,44.9812716 C98.4435982,44.9812716 102.066002,48.6036752 102.066002,53.0730147 L102.066002,98.9262257 L133.533892,98.9262257 C138.003231,98.9262257 141.625635,102.548629 141.625635,107.017969 C141.625635,111.487308 138.003231,115.109712 133.533892,115.109712" id="Fill-3" fill="var(--ttime-icon-color)"></path>
  </g>
</svg>
