<svg width="24" height="24" viewBox="0 0 24 24" fill="none" xmlns="http://www.w3.org/2000/svg">
<path d="M19.0172 8.64609C17.9437 5.8125 15.2086 3.79688 12.0047 3.79688C8.80077 3.79688 6.06562 5.81016 4.99218 8.64375C2.97421 9.17578 1.48827 11.0203 1.49999 13.2094C1.51406 15.6562 3.41249 17.6461 5.80312 17.8594C5.91327 17.8687 6.00702 17.782 6.00702 17.6719V16.2562C6.00702 16.1625 5.93671 16.0828 5.84296 16.0711C5.21015 15.9914 4.61249 15.7148 4.15312 15.2625C3.59062 14.7117 3.28124 13.9711 3.28124 13.1859C3.28124 12.5297 3.49452 11.9109 3.8953 11.3953C4.28671 10.8937 4.83749 10.5305 5.44452 10.3711L6.33281 10.1367L6.65859 9.27656C6.86015 8.74219 7.1414 8.24062 7.4953 7.78828C7.84452 7.33828 8.25937 6.94453 8.72343 6.61641C9.68671 5.93906 10.8211 5.58047 12.0047 5.58047C13.1883 5.58047 14.3226 5.93906 15.2859 6.61875C15.7523 6.94687 16.1648 7.34062 16.5141 7.79062C16.868 8.24297 17.1492 8.74453 17.3508 9.27891L17.6742 10.1367L18.5602 10.3711C19.8305 10.7086 20.7187 11.8641 20.7187 13.1836C20.7187 13.9711 20.4094 14.7094 19.8469 15.2602C19.3898 15.7102 18.7945 15.9891 18.1617 16.0687C18.068 16.0805 18 16.1602 18 16.2539V17.6719C18 17.782 18.0961 17.8687 18.2062 17.8594C20.5898 17.6437 22.4836 15.6562 22.5 13.2141C22.5141 11.025 21.0305 9.18047 19.0172 8.64609Z" fill="var(--ttime-icon-color)"/>
<path d="M12 20.4C11.0506 20.4 10.1226 20.1185 9.33326 19.5911C8.54391 19.0636 7.92868 18.314 7.56538 17.4369C7.20208 16.5598 7.10702 15.5947 7.29223 14.6636C7.47744 13.7325 7.93459 12.8772 8.60589 12.2059C9.27718 11.5346 10.1325 11.0774 11.0636 10.8922C11.9947 10.707 12.9598 10.8021 13.8369 11.1654C14.714 11.5287 15.4636 12.1439 15.9911 12.9333C16.5185 13.7226 16.8 14.6507 16.8 15.6C16.7978 16.8724 16.2914 18.092 15.3917 18.9917C14.492 19.8914 13.2724 20.3978 12 20.4ZM12 12.2515C11.3377 12.2515 10.6903 12.4479 10.1397 12.8158C9.58903 13.1838 9.15985 13.7067 8.90641 14.3186C8.65297 14.9305 8.58666 15.6037 8.71586 16.2533C8.84506 16.9028 9.16397 17.4994 9.63227 17.9677C10.1006 18.436 10.6972 18.7549 11.3467 18.8841C11.9963 19.0133 12.6696 18.947 13.2814 18.6936C13.8933 18.4402 14.4162 18.011 14.7842 17.4603C15.1521 16.9097 15.3485 16.2623 15.3485 15.6C15.3463 14.7126 14.9928 13.8621 14.3653 13.2347C13.7379 12.6072 12.8874 12.2537 12 12.2515Z" fill="var(--ttime-icon-color)"/>
<path d="M11.6535 16.7594C11.461 16.7594 11.2764 16.6829 11.1403 16.5468C11.0042 16.4107 10.9277 16.2261 10.9277 16.0336V13.967C10.9277 13.8717 10.9465 13.7773 10.9829 13.6893C11.0194 13.6012 11.0729 13.5212 11.1402 13.4538C11.2076 13.3864 11.2877 13.3329 11.3757 13.2964C11.4638 13.2599 11.5582 13.2411 11.6535 13.2411C11.7488 13.2411 11.8432 13.2599 11.9312 13.2964C12.0193 13.3329 12.0993 13.3864 12.1667 13.4538C12.2341 13.5212 12.2876 13.6012 12.324 13.6893C12.3605 13.7773 12.3793 13.8717 12.3792 13.967V16.0336C12.3792 16.2261 12.3028 16.4107 12.1667 16.5468C12.0306 16.6829 11.846 16.7594 11.6535 16.7594Z" fill="var(--ttime-icon-color)"/>
<path d="M13.6112 16.8783H11.6535C11.461 16.8782 11.2764 16.8017 11.1404 16.6656C11.0043 16.5295 10.9278 16.345 10.9278 16.1525C10.9278 15.96 11.0043 15.7754 11.1404 15.6393C11.2764 15.5032 11.461 15.4268 11.6535 15.4267H13.6112C13.8037 15.4268 13.9882 15.5032 14.1243 15.6393C14.2604 15.7754 14.3368 15.96 14.3368 16.1525C14.3368 16.345 14.2604 16.5295 14.1243 16.6656C13.9882 16.8017 13.8037 16.8782 13.6112 16.8783Z" fill="var(--ttime-icon-color)"/>
</svg>
